<svg xmlns="http://www.w3.org/2000/svg" width="197.364" height="53.552" viewBox="0 0 197.364 53.552">
  <g id="Grupo_907" data-name="Grupo 907" transform="translate(-842.737 537.598)">
    <path id="Caminho_31" data-name="Caminho 31" d="M513.315,200.821h6.256V177.4h-6.256v23.42Z" transform="translate(443.48 -715)" fill="#fff"/>
    <path id="Caminho_32" data-name="Caminho 32" d="M123.744,190.918l3.279-7.829,3.278,7.829Zm-.669-13.516-10.338,23.42h6.892l1.974-4.751h10.84l2.007,4.751h7.059L131.171,177.4Z" transform="translate(730 -715)" fill="#fff"/>
    <path id="Caminho_33" data-name="Caminho 33" d="M233.089,192.156,227.736,177.4H217.9v23.42h6.157V183.959l6.189,16.862H235.8l6.19-16.862v16.862h6.156V177.4h-9.736Z" transform="translate(654.781 -715)" fill="#fff"/>
    <path id="Caminho_34" data-name="Caminho 34" d="M340.919,200.821h19.806V195.5h-13.55v-3.747H360.39v-5.32H347.175v-3.714h13.55V177.4H340.919Z" transform="translate(566.789 -715)" fill="#fff"/>
    <path id="Caminho_35" data-name="Caminho 35" d="M615.621,190.918l3.279-7.829,3.278,7.829Zm-.669-13.516-10.338,23.42h6.892l1.974-4.751h10.84l2.007,4.751h7.059L623.049,177.4Z" transform="translate(378.177 -715)" fill="#fff"/>
    <path id="Caminho_36" data-name="Caminho 36" d="M727.208,191.688,717.673,177.4h-7.9v23.42H716V186l9.836,14.821H733.4V177.4h-6.19Z" transform="translate(302.957 -715)" fill="#fff"/>
    <path id="Caminho_37" data-name="Caminho 37" d="M570.169,306.649h19.807v-5.319h-13.55v-3.747h13.215v-5.319H576.426v-3.714h13.55v-5.32H570.169Z" transform="translate(402.814 -790.695)" fill="#fff"/>
    <path id="Caminho_38" data-name="Caminho 38" d="M217.9,306.649h19.807v-5.319h-13.55v-3.747h13.216v-5.319H224.155v-3.714h13.55v-5.32H217.9Z" transform="translate(654.781 -790.695)" fill="#fff"/>
    <path id="Caminho_39" data-name="Caminho 39" d="M319.137,283.229h-7.963l-6.089,7.059L299,283.229h-8.164l10.3,11.576-10.506,11.844h7.963l6.391-7.427,6.39,7.427h8.164l-10.572-11.977Z" transform="translate(602.758 -790.695)" fill="#fff"/>
    <path id="Caminho_40" data-name="Caminho 40" d="M437.648,187.439h-6.557v-4.718h6.557c1.874,0,2.811,1.1,2.811,2.376,0,1.3-.937,2.342-2.811,2.342m9.1-2.476c0-4.483-3.212-7.561-8.364-7.561h-13.55v23.42h6.257v-8.2h2.275l7.127,8.2h7.762l-7.762-8.465a7.382,7.382,0,0,0,6.256-7.394" transform="translate(506.768 -715)" fill="#fff"/>
    <path id="Caminho_41" data-name="Caminho 41" d="M553.176,189.312v-.435c0-3.479,1.94-5.989,5.955-5.989h6.959V177.4H558.6c-7.729,0-11.676,4.952-11.676,11.475v.469c0,7.26,4.483,11.475,11.375,11.475h2.141l2.509-5.319h-3.68c-3.747,0-6.089-2.108-6.089-6.19" transform="translate(419.444 -715)" fill="#fff"/>
    <path id="Caminho_42" data-name="Caminho 42" d="M407.721,293.7H401v-5.152h6.725a2.534,2.534,0,0,1,2.811,2.61,2.5,2.5,0,0,1-2.811,2.542m.736-10.472H394.74v23.42H401v-7.628h7.26c5.286,0,8.565-3.346,8.565-7.9,0-4.684-3.212-7.9-8.364-7.9" transform="translate(528.293 -790.695)" fill="#fff"/>
    <path id="Caminho_43" data-name="Caminho 43" d="M743.9,292.262h-5.755a1.876,1.876,0,1,1,0-3.714h10.4l2.442-5.32H738.113c-5.32,0-8.364,3.145-8.364,7.36,0,4.416,2.944,6.992,7.528,6.992h5.754a1.89,1.89,0,1,1,0,3.747H730.485v5.319h12.579c5.253,0,8.364-3.078,8.364-7.594,0-4.282-2.744-6.792-7.528-6.792" transform="translate(288.672 -790.695)" fill="#fff"/>
    <path id="Caminho_44" data-name="Caminho 44" d="M663.11,292.262h-5.754a1.876,1.876,0,1,1,0-3.714h10.4l2.442-5.32H657.322c-5.319,0-8.364,3.145-8.364,7.36,0,4.416,2.944,6.992,7.528,6.992h5.754a1.89,1.89,0,1,1,0,3.747H649.694v5.319h12.58c5.253,0,8.364-3.078,8.364-7.594,0-4.282-2.744-6.792-7.528-6.792" transform="translate(346.459 -790.695)" fill="#fff"/>
    <path id="Caminho_45" data-name="Caminho 45" d="M494.5,293.267h-6.557V288.55H494.5c1.874,0,2.811,1.1,2.811,2.376,0,1.3-.937,2.342-2.811,2.342m9.1-2.475c0-4.483-3.212-7.561-8.364-7.561H481.69v23.419h6.257v-8.2h2.275l7.127,8.2h7.762l-7.762-8.465a7.381,7.381,0,0,0,6.256-7.393" transform="translate(466.1 -790.695)" fill="#fff"/>
  </g>
</svg>
